<svg xmlns="http://www.w3.org/2000/svg" enable-background="new 0 0 64 64" viewBox="0 0 64 64"><g transform="translate(78 278)"><path fill="#134563" d="M-45.9-222.1c-13.2,0-23.9-10.7-23.9-23.9c0-13.2,10.7-23.9,23.9-23.9S-22-259.3-22-246.1     C-22-232.9-32.7-222.1-45.9-222.1L-45.9-222.1z M-45.9-267.4c-11.7,0-21.3,9.6-21.3,21.3c0,11.7,9.6,21.3,21.3,21.3     s21.3-9.6,21.3-21.3C-24.6-257.8-34.2-267.4-45.9-267.4L-45.9-267.4z"/><polygon fill="#134563" points="-58.7 -247.5 -33.2 -247.5 -33.2 -244.7 -58.7 -244.7"/></g></svg>